<svg width="24" height="24" viewBox="0 0 24 24" fill="none" xmlns="http://www.w3.org/2000/svg">
<path d="M17.5034 0H6.49657C2.9143 0 0 2.9143 0 6.49657V17.5036C0 21.0857 2.9143 24 6.49657 24H17.5036C21.0857 24 24 21.0857 24 17.5036V6.49657C24 2.9143 21.0857 0 17.5034 0V0ZM22.593 17.5036C22.593 20.3098 20.3098 22.593 17.5034 22.593H6.49657C3.69012 22.593 1.40698 20.3098 1.40698 17.5036V6.49657C1.40698 3.69012 3.69012 1.40698 6.49657 1.40698H17.5036C20.3098 1.40698 22.593 3.69012 22.593 6.49657V17.5036Z" fill="black"/>
<path d="M11.9998 5.43771C8.38128 5.43771 5.4375 8.38149 5.4375 12C5.4375 15.6185 8.38128 18.5623 11.9998 18.5623C15.6183 18.5623 18.5621 15.6185 18.5621 12C18.5621 8.38149 15.6183 5.43771 11.9998 5.43771ZM11.9998 17.1553C9.15728 17.1553 6.84448 14.8427 6.84448 12C6.84448 9.15749 9.15728 6.84469 11.9998 6.84469C14.8425 6.84469 17.1551 9.15749 17.1551 12C17.1551 14.8427 14.8425 17.1553 11.9998 17.1553Z" fill="black"/>
<path d="M18.7203 3.10718C17.651 3.10718 16.7812 3.97711 16.7812 5.04626C16.7812 6.1156 17.651 6.98553 18.7203 6.98553C19.7897 6.98553 20.6596 6.1156 20.6596 5.04626C20.6596 3.97693 19.7897 3.10718 18.7203 3.10718ZM18.7203 5.57836C18.427 5.57836 18.1882 5.3396 18.1882 5.04626C18.1882 4.75274 18.427 4.51416 18.7203 4.51416C19.0138 4.51416 19.2526 4.75274 19.2526 5.04626C19.2526 5.3396 19.0138 5.57836 18.7203 5.57836Z" fill="black"/>
</svg>
