<svg viewBox="0 0 236 54" fill="none" xmlns="http://www.w3.org/2000/svg">
<path d="M95.3972 17.2832H97.991L90.3621 38.0256H89.5077L83.1299 21.8274L76.7521 38.0256H75.8977L68.2383 17.2832H70.8626L76.4165 32.8322L82.7027 16.9432H83.5571L89.8433 32.8013L95.3972 17.2832Z" fill="black"/>
<path d="M120.951 37.6855H118.174L111.919 29.1227H107.616V37.6855H105.236V17.2832H112.315C114.248 17.2832 115.804 17.8397 116.984 18.9525C118.164 20.0447 118.754 21.4564 118.754 23.1875C118.754 24.5683 118.378 25.7636 117.625 26.7734C116.872 27.7626 115.835 28.453 114.512 28.8445L120.951 37.6855ZM107.616 19.4471V26.9589H112.224C113.505 26.9589 114.502 26.6291 115.214 25.9697C115.926 25.2896 116.282 24.3725 116.282 23.2184C116.282 22.085 115.916 21.1782 115.184 20.4981C114.472 19.7974 113.485 19.4471 112.224 19.4471H107.616Z" fill="black"/>
<path d="M127.27 37.6855V17.2832H129.65V37.6855H127.27Z" fill="black"/>
<path d="M136.693 33.636L138.463 32.3067C139.968 34.6355 141.84 35.7998 144.078 35.7998C145.298 35.7998 146.275 35.4907 147.007 34.8725C147.76 34.2542 148.136 33.4299 148.136 32.3995C148.136 31.5339 147.892 30.8848 147.404 30.452C146.936 29.9986 146.061 29.4525 144.78 28.8136L142.521 27.7317C140.996 27.0104 139.856 26.2376 139.104 25.4132C138.351 24.5889 137.975 23.5379 137.975 22.2601C137.975 20.6939 138.565 19.4162 139.744 18.427C140.924 17.4378 142.359 16.9432 144.047 16.9432C145.369 16.9432 146.58 17.2626 147.679 17.9015C148.797 18.5197 149.693 19.3544 150.364 20.4054L148.624 21.7346C147.485 20.0241 145.949 19.1689 144.017 19.1689C142.999 19.1689 142.145 19.4368 141.453 19.9726C140.782 20.5084 140.446 21.2297 140.446 22.1365C140.446 22.7341 140.579 23.2287 140.843 23.6203C141.087 23.9912 141.402 24.3004 141.789 24.5477C142.176 24.795 142.806 25.135 143.681 25.5678L145.909 26.6497C147.556 27.4741 148.747 28.3087 149.479 29.1536C150.232 29.9986 150.608 31.0599 150.608 32.3376C150.608 34.0069 149.998 35.3774 148.777 36.449C147.556 37.5 146 38.0256 144.108 38.0256C142.562 38.0256 141.138 37.6443 139.836 36.8818C138.534 36.0987 137.486 35.0167 136.693 33.636Z" fill="black"/>
<path d="M172.639 17.2832L165.651 29.2464V37.6855H163.271V29.2464L156.283 17.2832H158.968L164.461 26.8661L169.984 17.2832H172.639Z" fill="black"/>
<path d="M177.459 27.4844C177.398 24.5786 178.405 22.085 180.48 20.0035C182.575 17.9221 185.057 16.902 187.926 16.9432C189.696 16.9432 191.313 17.3347 192.778 18.1179C194.263 18.901 195.433 19.9726 196.287 21.3328L194.517 22.7547C192.869 20.3642 190.682 19.1689 187.956 19.1689C185.678 19.1689 183.765 19.9623 182.219 21.5492C180.694 23.136 179.931 25.1144 179.931 27.4844C179.931 29.8543 180.694 31.8327 182.219 33.4196C183.765 35.0064 185.678 35.7998 187.956 35.7998C190.682 35.7998 192.869 34.6046 194.517 32.214L196.287 33.636C195.433 34.9961 194.263 36.0678 192.778 36.8509C191.313 37.634 189.696 38.0256 187.926 38.0256C185.057 38.0668 182.575 37.0467 180.48 34.9652C178.405 32.8838 177.398 30.3902 177.459 27.4844Z" fill="black"/>
<path d="M203.636 37.6855V17.2832H206.017V35.5216H215.568V37.6855H203.636Z" fill="black"/>
<path d="M222.125 37.6855V17.2832H235.033V19.4471H224.505V25.6914H232.561V27.8553H224.505V35.5216H235.399V37.6855H222.125Z" fill="black"/>
<path d="M47.1443 25.1961L43.2466 21.913L41.956 23.4577L47.5381 28.1595C47.6417 28.2468 47.7611 28.3133 47.8893 28.3552C48.0175 28.3971 48.152 28.4135 48.2852 28.4036C48.4185 28.3936 48.5477 28.3575 48.6657 28.2972C48.7837 28.2369 48.888 28.1537 48.9728 28.0522L53.5358 22.5911L51.9568 21.2615L49.1836 24.5811C49.1259 21.8428 48.488 19.1332 47.3123 16.6309C46.1365 14.1286 44.4494 11.8905 42.3624 10.0643C40.2755 8.23817 37.836 6.86543 35.205 6.03668C32.574 5.20793 29.8113 4.94202 27.0992 5.25649L27.3837 7.28145C29.8625 6.99373 32.388 7.24802 34.7863 8.02682C37.1846 8.80562 39.3988 10.0904 41.2767 11.7929C43.1546 13.4953 44.6514 15.575 45.6643 17.8888C46.6772 20.2025 47.1821 22.6955 47.1443 25.1961Z" fill="black"/>
<path d="M17.6102 12.2752C18.7931 11.0897 20.1395 10.0799 21.6062 9.27849L20.6721 14.212L22.6252 14.5309L23.9387 7.59523C23.9631 7.4664 23.962 7.33471 23.9355 7.20767C23.909 7.08063 23.8575 6.96073 23.784 6.85483C23.7106 6.74892 23.6166 6.65908 23.5074 6.59043C23.3983 6.52179 23.276 6.47569 23.1478 6.45476L16.2421 5.32711L15.8706 7.28892L19.9616 7.95687C17.6252 9.36952 15.605 11.2579 14.0368 13.495C12.4687 15.7321 11.3889 18.2662 10.8702 20.9268C10.3514 23.5875 10.4055 26.3132 11.0291 28.9206C11.6526 31.5281 12.831 33.9569 14.4851 36.0438L16.0531 34.781C13.4958 31.5718 12.2403 27.4993 12.5277 23.3454C12.8151 19.1915 14.6251 15.2491 17.6102 12.2752Z" fill="black"/>
<path d="M45.531 31.2183C44.6221 33.5342 43.2132 35.6071 41.4019 37.2934C39.5906 38.9797 37.4201 40.239 35.0409 40.9842C32.6616 41.7294 30.1304 41.9426 27.6227 41.609C25.1149 41.2754 22.6905 40.4031 20.5175 39.0524L25.2492 37.4033L24.5165 35.4715L17.7783 37.8195L17.7661 37.8238C17.5142 37.9129 17.3114 38.0994 17.2021 38.3425C17.0927 38.5856 17.0858 38.8655 17.1827 39.1209L19.7734 45.9515L21.6813 45.2866L20.1142 41.1541C22.5408 42.5424 25.217 43.4091 27.9652 43.6968C30.7134 43.9845 33.4709 43.6866 36.0547 42.8229C38.6386 41.9591 40.9898 40.5492 42.9523 38.6867C44.9148 36.8242 46.4439 34.5517 47.438 32.0199L45.531 31.2183Z" fill="black"/>
<path d="M31.0635 25.3332C31.0635 26.4629 30.0769 27.3788 28.8599 27.3788C27.6428 27.3788 26.6562 26.4629 26.6562 25.3332C26.6562 24.2035 27.6428 23.2877 28.8599 23.2877C30.0769 23.2877 31.0635 24.2035 31.0635 25.3332Z" fill="black"/>
<path fill-rule="evenodd" clip-rule="evenodd" d="M37.9894 18.5705L29.7328 26.1199L28.2305 24.5431L36.4871 16.9937L37.9894 18.5705Z" fill="black"/>
</svg>
