<svg width="264" height="66" viewBox="0 0 264 66" fill="none" xmlns="http://www.w3.org/2000/svg">
<path d="M5.76644 20.5828C4.36765 16.8379 3.36851 15.3737 0 15.0922V14.8387C1.85554 14.9232 3.79671 14.9514 6.109 14.9514C8.33564 14.9514 10.1341 14.9232 12.4178 14.8387V15.0922C9.42041 15.2893 8.27855 16.6689 9.1064 19.1468C11.333 25.9044 14.1021 33.4787 15.7863 37.7867C17.7561 32.9437 19.8971 27.4531 21.8097 22.5538C20.1825 18.4428 19.4118 15.4582 16.2431 15.0922V14.8387C18.3555 14.9514 20.2396 14.9514 22.0381 14.9514C23.9792 14.9514 25.6635 14.9232 27.8901 14.8387V15.0922C24.436 15.3456 23.4939 16.7534 24.3503 19.2031C26.7768 26.2142 29.3746 33.2253 31.1159 37.5614C32.4862 33.901 34.5415 28.0444 36.8538 20.8643C38.167 16.7253 36.8824 15.3456 32.9144 15.0922V14.8387C34.4844 14.8669 35.8261 14.9514 38.224 14.9514C40.3936 14.9514 41.3927 14.9232 43.1626 14.8387V15.0922C41.2215 15.4582 39.2803 16.1903 38.0813 19.4846C34.9126 28.1007 31.5441 37.8149 29.7457 43.4744L29.5458 43.5026C28.1185 39.0256 25.0926 31.1416 22.0952 23.3985C20.1254 28.0444 16.0433 38.3217 14.2734 43.4744L14.0735 43.5026C12.3322 38.1527 7.73616 25.9326 5.76644 20.5828Z" fill="#020000"/>
<path d="M38.3659 39.7858C38.2517 37.7585 39.0796 36.1818 40.5926 35.1118C42.5623 34.4642 45.3313 33.7039 48.0147 32.9437V30.4659C47.9862 28.523 47.6436 27.256 47.0156 26.4957C46.4446 25.7355 45.5311 25.4258 44.3036 25.4258C43.7612 25.4258 43.2189 25.4539 42.705 25.5384L42.4481 25.7918C42.2197 27.0589 42.2197 28.3541 42.4195 29.6212L41.9628 29.9591C41.7344 30.0154 41.5061 30.0435 41.2777 30.0435C40.0787 30.0435 39.3936 29.3114 39.3936 28.3259C39.3936 27.2278 40.3927 26.4957 42.2768 25.4539C43.59 24.7782 45.0458 24.384 46.5303 24.2995C49.0138 24.2995 51.2119 25.5102 51.2119 30.2688C51.2119 32.5495 51.1263 35.1399 51.1263 36.8857C51.1263 40.2645 51.583 41.5316 53.2673 41.5316H55.0372L55.0657 41.7005L50.4983 43.4463C49.6704 43.2773 49.2137 43.1365 48.6427 42.3763C48.3287 41.9258 47.9862 41.0811 48.0147 39.7858C46.5303 42.3481 45.0458 43.4463 42.3339 43.4463C40.1929 43.5026 38.423 41.8695 38.3659 39.7858ZM47.9576 38.6596C48.0433 37.3925 47.9862 36.0128 47.9862 33.2816C46.1877 33.8729 44.4178 34.5768 42.705 35.3934C41.9628 36.1818 41.4775 37.6178 41.6202 39.1664C41.7915 40.7995 42.9334 41.6724 44.4749 41.5597C45.9308 41.4471 47.9576 40.2364 47.9576 38.6596Z" fill="#020000"/>
<path d="M58.0635 35.9283V26.1297H55.3801L55.3516 25.7918C57.8922 24.8626 59.9761 22.6382 61.1751 20.1323L61.5747 20.2449C61.3749 21.7935 61.2607 23.314 61.2322 24.8908L67.2841 24.6937L66.913 26.1579L61.1751 26.1297V35.8439C61.1751 40.4053 62.8593 41.5034 65.3715 41.5034C66.3135 41.5034 67.227 41.3626 68.1405 41.1092L68.2261 41.3063C66.9701 42.0947 65.6569 42.8268 64.3152 43.4463C59.291 43.4463 58.0635 41.9821 58.0635 35.9283Z" fill="#020000"/>
<path d="M79.3608 41.6724C80.731 41.616 82.0727 41.3345 83.3288 40.8276L83.443 41.0811C81.6445 42.1229 79.7034 42.9394 77.7051 43.5589C72.5667 43.756 68.7129 40.7995 68.7129 34.2671C68.7129 28.4667 72.424 24.215 77.9335 24.215C80.731 24.215 83.129 25.4821 83.129 27.3405C83.129 28.7765 81.9871 29.5085 80.5598 29.4522L80.1887 29.1988C79.6463 26.5521 78.7042 24.6374 76.8202 24.6374C73.5944 24.6374 72.167 28.4949 72.167 32.4087C72.1956 37.6741 74.2795 41.6724 79.3608 41.6724Z" fill="#020000"/>
<path d="M90.3512 13.3464L90.4368 13.4591C90.3227 14.7261 90.2656 17.4292 90.2656 19.9915V27.5094C91.5216 26.5239 92.8348 25.5947 94.1765 24.75C94.9472 24.5248 95.7465 24.4121 96.5744 24.384C100.086 24.384 101.856 26.5802 101.856 31.3669V38.1246C101.856 41.8976 102.598 42.6297 104.767 42.8831V43.1365C103.083 43.0521 102.655 43.0239 100.685 43.0239C98.801 43.0239 97.5164 43.0521 95.8322 43.1365V42.8831C98.2301 42.6297 98.6868 41.8132 98.6868 38.0401V31.8737C98.6868 27.3968 96.8313 26.2987 93.263 26.2987C92.2353 26.721 91.2361 27.2278 90.2941 27.791V38.0401C90.2941 41.8132 90.3798 42.5452 92.9775 42.8831V43.1365C91.0078 43.0521 90.5796 43.0239 88.6099 43.0239C86.6401 43.0239 85.8979 43.0521 83.8711 43.1365V42.8831C86.3547 42.686 87.154 41.8132 87.154 38.0964V20.4138C87.154 17.4574 86.7829 16.669 86.3261 16.0214L83.8996 15.4019L83.8711 15.233C86.1548 14.6417 88.2102 14.0222 90.3512 13.3464Z" fill="#020000"/>
<path d="M106.594 34.07C106.594 28.2133 109.962 24.1869 114.501 24.1869C119.154 24.1869 120.924 27.5657 120.839 31.6766L120.467 31.9863H109.848C109.648 38.7722 112.703 41.4189 116.614 41.5034C118.155 41.5879 119.697 41.25 121.067 40.5742L121.181 40.9403C119.468 41.9258 117.698 42.7705 115.871 43.5026C110.076 43.8968 106.594 40.6306 106.594 34.07ZM117.584 31.5077C117.584 27.9317 116.471 24.6092 114.073 24.6092C111.475 24.6092 109.877 27.6502 109.82 31.6766L117.584 31.5077Z" fill="#020000"/>
<path d="M125.691 42.9957C124.178 42.5452 123.636 41.9258 123.55 40.8558C123.522 40.2927 123.55 39.4198 123.75 36.9138H124.007C124.492 39.5606 126.605 42.9957 129.574 42.9957C132.428 42.9957 133.884 41.1937 133.884 38.9693C133.884 36.8294 132.229 35.7594 129.688 35.1399C126.063 34.2389 123.922 32.9437 123.922 29.6493C123.922 26.4957 126.519 24.1587 130.773 24.1587C131.8 24.1305 132.828 24.2713 133.827 24.5247C135.226 24.8908 135.683 25.5947 135.768 26.6084C135.797 27.0589 135.797 27.9036 135.797 29.9309H135.54C134.769 27.8191 132.942 24.5811 130.402 24.5811C127.718 24.5811 126.719 26.355 126.719 28.2415C126.719 30.3251 128.004 31.5358 130.973 32.2679C134.855 33.1971 136.653 34.9147 136.653 37.843C136.653 41.3345 133.313 43.5026 129.374 43.5026C128.146 43.4744 126.89 43.3055 125.691 42.9957Z" fill="#020000"/>
<path d="M183.556 17.2884C183.214 22.9761 182.928 30.5503 182.814 37.1672C182.728 41.7287 184.327 42.4044 187.267 42.6015V42.8549C185.212 42.7705 184.013 42.7423 181.958 42.7423C179.902 42.7423 179.074 42.7705 176.848 42.8549V42.6015C179.731 42.3481 181.558 41.6723 181.958 37.0264C182.414 31.2543 182.614 26.1297 182.957 19.3157C183.128 15.8524 182.557 15.2892 178.246 14.8106V14.5572C180.016 14.6135 180.759 14.6416 182.528 14.6416C184.013 14.6416 185.012 14.6416 186.468 14.6135C189.323 22.2159 193.091 31.395 195.945 37.7867C198.971 30.8319 202.397 22.6945 205.566 14.6135C206.793 14.6416 207.792 14.6416 209.105 14.6416C210.761 14.6416 212.017 14.6135 213.273 14.5572V14.8106C209.334 15.0077 209.077 16.5845 209.077 19.1186C209.105 26.2986 209.362 34.6894 209.534 38.0119C209.733 41.4753 210.676 42.2636 214.015 42.6015V42.8549C211.789 42.7705 210.304 42.7423 208.078 42.7423C205.451 42.7423 203.996 42.7705 201.284 42.8549V42.6015C204.909 42.2636 205.908 41.3908 205.908 37.843C205.908 32.634 205.566 22.6101 205.366 16.7534C202.083 24.5529 197.944 34.3797 194.661 42.686L194.29 42.8831C191.235 35.0836 187.324 25.8763 183.556 17.2884Z" fill="#020000"/>
<path d="M214.672 33.5631C214.672 28.0444 217.955 23.9334 223.693 23.9334C229.431 23.9334 232.771 28.0725 232.771 33.5631C232.771 39.0819 229.431 43.2773 223.693 43.2773C217.955 43.2773 214.672 39.0819 214.672 33.5631ZM229.088 33.5631C229.088 28.0444 227.432 24.2713 223.693 24.2713C219.953 24.2713 218.326 28.0444 218.326 33.5913C218.326 39.1382 219.924 42.9676 223.693 42.9676C227.461 42.9676 229.088 39.0819 229.088 33.5631Z" fill="#020000"/>
<path d="M234.455 26.1015C236.51 25.5384 238.908 24.8063 240.964 24.0179L241.049 24.1305C240.85 25.4821 240.85 27.0588 240.85 28.8891C241.478 27.7628 242.277 26.721 243.162 25.7918C244.161 24.7218 244.96 24.215 245.731 24.0179C247.872 23.9334 248.529 25.4821 248.529 26.8899C248.529 27.2559 248.472 27.622 248.357 27.988L248.1 28.1851C246.73 27.3686 245.531 26.8054 244.275 26.721C242.876 26.9744 241.849 27.988 240.907 29.2833V36.8856C240.907 41.2781 241.249 42.4607 244.618 42.6297V42.8831C242.648 42.7986 241.535 42.7705 239.536 42.7705C237.538 42.7705 236.482 42.7986 234.455 42.8831V42.6297C237.338 42.4326 237.738 41.25 237.738 36.942V31.2824C237.738 28.3259 237.367 27.5375 236.91 26.8899L234.484 26.2705L234.455 26.1015Z" fill="#020000"/>
<path d="M249.412 33.7884C249.412 27.9318 252.781 23.9053 257.32 23.9053C261.973 23.9053 263.743 27.2841 263.657 31.3669L263.286 31.7048H252.666C252.467 38.4906 255.521 41.1374 259.432 41.2218C260.974 41.3063 262.515 40.9684 263.885 40.2927L263.999 40.6587C262.287 41.6442 260.517 42.4889 258.69 43.221C252.895 43.6152 249.412 40.3771 249.412 33.7884ZM260.403 31.2261C260.403 27.6502 259.289 24.3277 256.891 24.3277C254.294 24.3277 252.695 27.3686 252.638 31.3951L260.403 31.2261Z" fill="#020000"/>
<path d="M124.578 65.3524L126.519 65.2398C133.371 64.8174 135.626 62.7056 143.533 51.4147L155.409 34.0981L139.879 11.0939C134.741 3.49147 133.685 1.15444 129.288 0.84471L126.291 0.619454L125.863 0H154.01L153.781 0.534983L149.614 0.647611C144.789 0.760239 144.161 2.44966 148.871 9.82679L160.747 27.7628H160.861L170.396 13.7125C177.561 2.84386 175.648 1.77389 168.369 0.929181L165.371 0.619454L165.029 0H190.293L189.979 0.619454L188.038 0.732082C181.3 1.04181 179.359 2.64676 171.538 14.0503L161.518 28.7201C161.403 28.7201 181.101 57.9753 181.101 57.9753C184.64 63.1561 185.154 64.8456 189.665 65.1553L192.548 65.3524L192.862 66H164.915L165.229 65.3524L169.282 65.2398C174.107 65.1271 174.735 63.3251 172.08 59.2142L156.037 35.1399H155.922C155.922 35.0273 144.561 51.7244 144.561 51.7244C137.396 62.4804 138.68 64.2824 146.159 65.0145L149.157 65.3242L149.471 65.9718H124.207L124.578 65.3524Z" fill="#B89451"/>
<path d="M219.067 49.6971H216.983V50.936H219.01V51.6681H216.983V53.3857H219.067V54.1178H216.184V48.965H219.067V49.6971Z" fill="#020000"/>
<path d="M225.834 49.7253L225.206 50.0913C225.12 49.9223 225.006 49.7816 224.863 49.6971C224.549 49.5282 224.178 49.5563 223.893 49.7816C223.75 49.8942 223.664 50.0631 223.664 50.2321C223.664 50.4855 223.864 50.6826 224.235 50.8515L224.749 51.0486C225.12 51.1613 225.434 51.3865 225.691 51.6681C225.891 51.9215 225.977 52.2312 225.977 52.5691C225.977 53.0196 225.805 53.442 225.491 53.7517C225.177 54.0614 224.749 54.2304 224.292 54.2304C223.893 54.2585 223.465 54.0896 223.179 53.8362C222.865 53.5264 222.665 53.1323 222.637 52.7099L223.436 52.541C223.436 52.7662 223.522 52.9915 223.636 53.1604C223.807 53.3857 224.064 53.4983 224.35 53.4983C224.578 53.4983 224.806 53.4138 224.978 53.2449C225.206 52.9915 225.263 52.6536 225.177 52.3439C225.149 52.2594 225.092 52.1749 225.035 52.1186C224.978 52.0341 224.892 51.9778 224.806 51.9215C224.692 51.8652 224.578 51.8089 224.464 51.7526L223.95 51.5555C223.236 51.2457 222.865 50.8234 222.865 50.2602C222.865 49.8942 223.036 49.5282 223.322 49.3029C223.636 49.0495 224.036 48.9087 224.435 48.9087C225.006 48.8524 225.577 49.1903 225.834 49.7253Z" fill="#020000"/>
<path d="M231.2 49.6971V54.1178H230.401V49.6971H229.23V48.965H232.428V49.6971H231.2Z" fill="#020000"/>
<path d="M241.877 53.3857H243.818V54.1178H240.307L242.105 51.9497C242.276 51.7244 242.419 51.5555 242.562 51.3865C242.676 51.2739 242.762 51.1331 242.847 50.9923C242.961 50.8234 243.019 50.6263 243.047 50.4292C243.047 50.2039 242.961 49.9787 242.79 49.8379C242.619 49.6689 242.391 49.5845 242.162 49.5845C241.648 49.5845 241.334 49.8942 241.249 50.5137H240.449C240.564 49.4155 241.134 48.8806 242.105 48.8806C242.533 48.8806 242.99 49.0213 243.304 49.3311C243.618 49.6126 243.789 50.0068 243.789 50.4292C243.789 50.7108 243.704 50.9923 243.561 51.2457C243.447 51.4147 243.361 51.5836 243.218 51.7526C243.076 51.9497 242.876 52.1749 242.647 52.4283L241.877 53.3857Z" fill="#020000"/>
<path d="M247.501 51.4991C247.472 50.7952 247.672 50.0913 248.072 49.5281C248.529 48.8524 249.471 48.6553 250.184 49.1058C250.355 49.2184 250.498 49.3592 250.612 49.5281C251.383 50.7389 251.383 52.2875 250.612 53.5264C250.327 53.9488 249.87 54.174 249.356 54.2022C248.843 54.2022 248.386 53.9488 248.1 53.5264C247.672 52.9351 247.444 52.2031 247.501 51.4991ZM248.272 51.4991C248.243 51.9778 248.357 52.4846 248.557 52.9351C248.7 53.3575 249.157 53.5828 249.556 53.442C249.813 53.3575 250.013 53.1604 250.07 52.9351C250.47 52.0341 250.47 51.0205 250.07 50.1476C249.927 49.7252 249.499 49.5 249.071 49.6408C248.814 49.7252 248.614 49.9223 248.557 50.1476C248.357 50.5418 248.243 51.0205 248.272 51.4991Z" fill="#020000"/>
<path d="M255.58 49.6971H254.666L255.094 48.965H256.35V54.1178H255.551L255.58 49.6971Z" fill="#020000"/>
<path d="M261.402 51.4147C261.031 51.1613 260.831 50.7671 260.831 50.3166C260.831 49.9224 260.974 49.5563 261.26 49.2747C261.545 48.9932 261.945 48.8524 262.344 48.8524C262.744 48.8524 263.144 48.9932 263.429 49.2747C263.715 49.5563 263.886 49.9224 263.857 50.3166C263.857 50.7389 263.658 51.1613 263.286 51.3865C263.486 51.4991 263.658 51.6681 263.772 51.8652C263.886 52.0904 263.972 52.3439 263.943 52.5973C263.972 53.0196 263.8 53.442 263.486 53.7236C263.172 54.0051 262.773 54.1741 262.344 54.1741C261.916 54.2022 261.488 54.0333 261.145 53.7236C260.831 53.442 260.66 53.0478 260.66 52.6254C260.689 52.1468 260.946 51.6681 261.402 51.4147ZM261.488 52.6254C261.488 52.8507 261.574 53.0759 261.745 53.2449C262.088 53.5828 262.63 53.5828 262.944 53.2449C263.115 53.0759 263.201 52.8788 263.201 52.6254C263.201 52.1468 262.83 51.7807 262.373 51.7526C262.145 51.7526 261.888 51.837 261.716 52.006C261.574 52.1749 261.488 52.4002 261.488 52.6254ZM261.574 50.3447C261.574 50.7671 261.916 51.1331 262.344 51.1331C262.773 51.1331 263.144 50.7952 263.144 50.3729C263.144 50.1758 263.058 49.9505 262.915 49.8097C262.601 49.5 262.116 49.5 261.802 49.8097C261.659 49.9505 261.574 50.1195 261.574 50.3447Z" fill="#020000"/>
</svg>
