<svg viewBox="0 0 207 140" fill="none" xmlns="http://www.w3.org/2000/svg">
<path d="M123.091 31.1362L118.264 27.0791L116.666 28.9879L123.578 34.7982C123.707 34.9061 123.854 34.9883 124.013 35.04C124.172 35.0918 124.338 35.1121 124.503 35.0998C124.668 35.0875 124.829 35.0428 124.975 34.9683C125.121 34.8938 125.25 34.791 125.355 34.6656L131.005 27.917L129.05 26.274L125.616 30.3761C125.544 26.9923 124.755 23.6439 123.299 20.5516C121.843 17.4594 119.753 14.6937 117.169 12.437C114.585 10.1803 111.564 8.48397 108.306 7.45985C105.048 6.43572 101.627 6.10711 98.2681 6.49572L98.6205 8.99807C101.69 8.64252 104.817 8.95676 107.787 9.91916C110.757 10.8816 113.499 12.4693 115.825 14.5731C118.15 16.6769 120.004 19.2468 121.258 22.1061C122.512 24.9654 123.137 28.046 123.091 31.1362Z" fill="black"/>
<path d="M86.519 15.1691C87.9839 13.7041 89.6512 12.4563 91.4674 11.4659L90.3107 17.5625L92.7293 17.9565L94.3559 9.38582C94.3861 9.22662 94.3847 9.06388 94.3519 8.90689C94.319 8.7499 94.2553 8.60173 94.1643 8.47086C94.0734 8.33998 93.957 8.22896 93.8218 8.14414C93.6866 8.05931 93.5353 8.00234 93.3764 7.97647L84.8249 6.58298L84.3648 9.0073L89.4309 9.83271C86.5376 11.5784 84.0359 13.9119 82.094 16.6765C80.1522 19.441 78.8151 22.5724 78.1727 25.8604C77.5302 29.1483 77.5973 32.5166 78.3694 35.7387C79.1415 38.9609 80.6008 41.9623 82.6491 44.5412L84.5909 42.9807C81.4241 39.0149 79.8693 33.9823 80.2252 28.8491C80.5811 23.7159 82.8225 18.8441 86.519 15.1691Z" fill="black"/>
<path d="M121.095 38.578C119.969 41.44 118.224 44.0016 115.981 46.0854C113.738 48.1692 111.051 49.7254 108.104 50.6463C105.158 51.5672 102.024 51.8306 98.9181 51.4184C95.8127 51.0062 92.8105 49.9282 90.1196 48.2591L95.979 46.2212L95.0716 43.834L86.7276 46.7356L86.7125 46.7409C86.4005 46.8509 86.1494 47.0814 86.014 47.3818C85.8786 47.6822 85.87 48.0281 85.99 48.3438L89.1981 56.7847L91.5607 55.963L89.6202 50.8562C92.6251 52.5718 95.9391 53.6429 99.3423 53.9984C102.745 54.354 106.16 53.9858 109.36 52.9184C112.559 51.851 115.471 50.1088 117.901 47.8072C120.332 45.5056 122.225 42.6973 123.456 39.5686L121.095 38.578Z" fill="black"/>
<path d="M33.6317 76.2551H36.8437L27.3966 101.887H26.3385L18.4407 81.8705L10.543 101.887H9.48488L0 76.2551H3.2498L10.1273 95.4698L17.9117 75.8349H18.9698L26.7542 95.4316L33.6317 76.2551Z" fill="black"/>
<path d="M65.2759 101.467H61.8371L54.0905 90.8858H48.7624V101.467H45.8149V76.2551H54.5818C56.975 76.2551 58.9022 76.9427 60.3634 78.3179C61.8245 79.6676 62.5551 81.4121 62.5551 83.5513C62.5551 85.2576 62.0891 86.7347 61.1569 87.9825C60.2248 89.205 58.94 90.0581 57.3025 90.542L65.2759 101.467ZM48.7624 78.9291V88.2117H54.4684C56.0555 88.2117 57.2899 87.8043 58.1717 86.9893C59.0534 86.1489 59.4943 85.0157 59.4943 83.5895C59.4943 82.1888 59.0408 81.0683 58.1339 80.2279C57.2521 79.362 56.0303 78.9291 54.4684 78.9291H48.7624Z" fill="black"/>
<path d="M73.1007 101.467V76.2551H76.0482V101.467H73.1007Z" fill="black"/>
<path d="M84.7694 96.463L86.9611 94.8204C88.8253 97.6981 91.143 99.137 93.9142 99.137C95.4257 99.137 96.6349 98.755 97.5418 97.991C98.4739 97.227 98.94 96.2083 98.94 94.935C98.94 93.8654 98.6377 93.0632 98.0331 92.5284C97.4537 91.9681 96.3704 91.2932 94.7833 90.5038L91.9869 89.1667C90.0975 88.2754 88.6868 87.3204 87.7546 86.3017C86.8225 85.2831 86.3565 83.9842 86.3565 82.4053C86.3565 80.4698 87.087 78.8909 88.5482 77.6685C90.0093 76.4461 91.7854 75.8349 93.8764 75.8349C95.5139 75.8349 97.0128 76.2296 98.3732 77.0191C99.7588 77.7831 100.867 78.8145 101.699 80.1133L99.5446 81.7559C98.1339 79.6421 96.2318 78.5853 93.8386 78.5853C92.579 78.5853 91.5209 78.9163 90.6643 79.5785C89.833 80.2406 89.4173 81.132 89.4173 82.2525C89.4173 82.991 89.5811 83.6022 89.9086 84.0861C90.2109 84.5445 90.6014 84.9265 91.08 85.2321C91.5587 85.5377 92.3396 85.9579 93.4229 86.4927L96.1815 87.8297C98.222 88.8484 99.6958 89.8798 100.603 90.924C101.535 91.9681 102.001 93.2796 102.001 94.8586C102.001 96.9214 101.245 98.6149 99.7336 99.9392C98.222 101.238 96.2948 101.887 93.9519 101.887C92.0373 101.887 90.2739 101.416 88.6616 100.474C87.0493 99.5063 85.7519 98.1693 84.7694 96.463Z" fill="black"/>
<path d="M129.283 76.2551L120.629 91.0386V101.467H117.682V91.0386L109.028 76.2551H112.354L119.156 88.0971L125.995 76.2551H129.283Z" fill="black"/>
<path d="M135.251 88.8611C135.176 85.2703 136.423 82.1888 138.992 79.6167C141.587 77.0445 144.66 75.7839 148.212 75.8349C150.404 75.8349 152.407 76.3187 154.221 77.2865C156.06 78.2542 157.508 79.5785 158.567 81.2593L156.375 83.0165C154.334 80.0624 151.626 78.5853 148.25 78.5853C145.429 78.5853 143.061 79.5657 141.146 81.5267C139.257 83.4876 138.312 85.9325 138.312 88.8611C138.312 91.7898 139.257 94.2347 141.146 96.1956C143.061 98.1565 145.429 99.137 148.25 99.137C151.626 99.137 154.334 97.6599 156.375 94.7058L158.567 96.463C157.508 98.1438 156.06 99.4681 154.221 100.436C152.407 101.404 150.404 101.887 148.212 101.887C144.66 101.938 141.587 100.678 138.992 98.1056C136.423 95.5335 135.176 92.452 135.251 88.8611Z" fill="black"/>
<path d="M167.668 101.467V76.2551H170.615V98.7932H182.443V101.467H167.668Z" fill="black"/>
<path d="M190.562 101.467V76.2551H206.547V78.9291H193.51V86.6455H203.486V89.3195H193.51V98.7932H207V101.467H190.562Z" fill="black"/>
<path d="M103.179 31.3056C103.179 32.7017 101.958 33.8334 100.45 33.8334C98.9434 33.8334 97.7217 32.7017 97.7217 31.3056C97.7217 29.9096 98.9434 28.7778 100.45 28.7778C101.958 28.7778 103.179 29.9096 103.179 31.3056Z" fill="black"/>
<path fill-rule="evenodd" clip-rule="evenodd" d="M111.755 22.9486L101.531 32.2778L99.6707 30.3292L109.895 21L111.755 22.9486Z" fill="black"/>
<path d="M32.9859 129.5V122.469H30.2166V121.287H37.09V122.469H34.3082V129.5H32.9859Z" fill="black"/>
<path d="M43.5894 125.68V129.5H42.2796V125.866C42.2796 125.443 42.159 125.103 41.9178 124.846C41.6766 124.58 41.3523 124.448 40.9448 124.448C40.5373 124.448 40.2005 124.58 39.9343 124.846C39.6765 125.111 39.5476 125.451 39.5476 125.866V129.5H38.2378V120.167H39.5476V124C39.9718 123.502 40.5622 123.253 41.319 123.253C42.0093 123.253 42.5582 123.477 42.9657 123.925C43.3815 124.365 43.5894 124.949 43.5894 125.68Z" fill="black"/>
<path d="M50.9269 126.874H46.3612C46.4444 127.372 46.6647 127.766 47.0223 128.056C47.3883 128.338 47.8332 128.48 48.3571 128.48C49.0058 128.48 49.6004 128.239 50.141 127.758L50.7647 128.654C50.0745 129.309 49.2595 129.637 48.3197 129.637C47.3883 129.637 46.6065 129.334 45.9745 128.728C45.3424 128.114 45.0264 127.355 45.0264 126.451C45.0098 125.572 45.3175 124.817 45.9495 124.186C46.5816 123.547 47.33 123.236 48.195 123.253C49.0016 123.253 49.6753 123.522 50.2158 124.062C50.7564 124.593 51.0267 125.256 51.0267 126.053C51.0267 126.293 50.9934 126.567 50.9269 126.874ZM46.3861 125.854H49.7169C49.7085 125.397 49.5547 125.037 49.2553 124.771C48.9559 124.497 48.5858 124.36 48.1451 124.36C47.7126 124.36 47.3342 124.497 47.0099 124.771C46.6938 125.037 46.4859 125.397 46.3861 125.854Z" fill="black"/>
<path d="M56.1111 129.5V121.287H61.4004V122.469H57.4335V124.92H60.7018V126.115H57.4335V129.5H56.1111Z" fill="black"/>
<path d="M62.3693 126.936V123.39H63.6666V127.036C63.6666 127.451 63.7956 127.787 64.0534 128.044C64.3112 128.301 64.6438 128.43 65.0513 128.43C65.4422 128.43 65.7624 128.301 66.0119 128.044C66.2697 127.787 66.3986 127.451 66.3986 127.036V123.39H67.7084V126.936C67.7084 127.741 67.4548 128.392 66.9475 128.89C66.4485 129.388 65.8164 129.637 65.0513 129.637C64.2696 129.637 63.6251 129.392 63.1178 128.903C62.6188 128.405 62.3693 127.749 62.3693 126.936Z" fill="black"/>
<path d="M73.1886 128.392V129.5C72.7562 129.591 72.3944 129.637 72.1034 129.637C71.3881 129.637 70.831 129.458 70.4318 129.102C70.0409 128.745 69.8455 128.214 69.8455 127.509V124.522H68.8475V123.39H69.8455V121.784H71.1678V123.39H72.9891V124.522H71.1678V127.397C71.1678 127.778 71.2634 128.052 71.4547 128.218C71.6543 128.376 71.962 128.455 72.3778 128.455C72.5192 128.455 72.7895 128.434 73.1886 128.392Z" fill="black"/>
<path d="M74.454 126.936V123.39H75.7514V127.036C75.7514 127.451 75.8803 127.787 76.1381 128.044C76.3959 128.301 76.7286 128.43 77.1361 128.43C77.5269 128.43 77.8471 128.301 78.0966 128.044C78.3544 127.787 78.4833 127.451 78.4833 127.036V123.39H79.7932V126.936C79.7932 127.741 79.5395 128.392 79.0322 128.89C78.5332 129.388 77.9012 129.637 77.1361 129.637C76.3543 129.637 75.7098 129.392 75.2025 128.903C74.7035 128.405 74.454 127.749 74.454 126.936Z" fill="black"/>
<path d="M85.1362 123.39V124.547H84.737C84.2047 124.547 83.7723 124.696 83.4396 124.995C83.107 125.294 82.9407 125.709 82.9407 126.24V129.5H81.6308V123.39H82.8533V124.186C83.3107 123.614 83.9053 123.328 84.6372 123.328C84.8035 123.328 84.9698 123.348 85.1362 123.39Z" fill="black"/>
<path d="M91.7007 126.874H87.135C87.2182 127.372 87.4386 127.766 87.7962 128.056C88.1621 128.338 88.607 128.48 89.131 128.48C89.7796 128.48 90.3743 128.239 90.9148 127.758L91.5386 128.654C90.8483 129.309 90.0333 129.637 89.0935 129.637C88.1621 129.637 87.3804 129.334 86.7483 128.728C86.1163 128.114 85.8003 127.355 85.8003 126.451C85.7836 125.572 86.0913 124.817 86.7234 124.186C87.3554 123.547 88.1039 123.236 88.9688 123.253C89.7755 123.253 90.4491 123.522 90.9897 124.062C91.5302 124.593 91.8005 125.256 91.8005 126.053C91.8005 126.293 91.7673 126.567 91.7007 126.874ZM87.16 125.854H90.4907C90.4824 125.397 90.3285 125.037 90.0291 124.771C89.7297 124.497 89.3597 124.36 88.9189 124.36C88.4864 124.36 88.1081 124.497 87.7837 124.771C87.4677 125.037 87.2598 125.397 87.16 125.854Z" fill="black"/>
<path d="M106.443 121.287H107.89L104.684 129.637H104.247L101.79 123.813L99.3324 129.637H98.8834L95.6774 121.287H97.1369L99.1952 126.837L101.553 121.15H102.014L104.385 126.837L106.443 121.287Z" fill="black"/>
<path d="M113.577 125.804V129.5H112.354V128.816C111.897 129.363 111.244 129.637 110.396 129.637C109.756 129.637 109.24 129.475 108.849 129.152C108.458 128.828 108.263 128.401 108.263 127.87C108.263 127.339 108.467 126.916 108.874 126.6C109.282 126.285 109.83 126.128 110.521 126.128H112.255V125.729C112.255 125.306 112.138 124.983 111.905 124.759C111.681 124.535 111.361 124.423 110.945 124.423C110.321 124.423 109.756 124.725 109.248 125.331L108.487 124.56C109.086 123.688 109.947 123.253 111.07 123.253C111.835 123.253 112.442 123.477 112.891 123.925C113.348 124.373 113.577 124.999 113.577 125.804ZM112.255 127.185V127.073H110.683C109.959 127.073 109.598 127.322 109.598 127.82C109.598 128.069 109.693 128.268 109.884 128.417C110.084 128.558 110.346 128.629 110.67 128.629C111.119 128.629 111.494 128.492 111.793 128.218C112.101 127.944 112.255 127.6 112.255 127.185Z" fill="black"/>
<path d="M119.042 128.392V129.5C118.61 129.591 118.248 129.637 117.957 129.637C117.242 129.637 116.685 129.458 116.286 129.102C115.895 128.745 115.699 128.214 115.699 127.509V124.522H114.701V123.39H115.699V121.784H117.022V123.39H118.843V124.522H117.022V127.397C117.022 127.778 117.117 128.052 117.309 128.218C117.508 128.376 117.816 128.455 118.232 128.455C118.373 128.455 118.643 128.434 119.042 128.392Z" fill="black"/>
<path d="M119.862 126.439C119.845 125.568 120.161 124.817 120.81 124.186C121.458 123.547 122.224 123.236 123.105 123.253C124.253 123.253 125.113 123.726 125.687 124.672L124.764 125.393C124.332 124.771 123.783 124.46 123.118 124.46C122.569 124.46 122.111 124.651 121.745 125.032C121.379 125.414 121.196 125.883 121.196 126.439C121.196 127.003 121.379 127.476 121.745 127.857C122.111 128.239 122.569 128.43 123.118 128.43C123.766 128.43 124.315 128.123 124.764 127.509L125.687 128.218C125.413 128.666 125.051 129.015 124.602 129.264C124.153 129.512 123.654 129.637 123.105 129.637C122.199 129.637 121.429 129.326 120.797 128.704C120.174 128.081 119.862 127.326 119.862 126.439Z" fill="black"/>
<path d="M132.483 125.68V129.5H131.173V125.866C131.173 125.443 131.053 125.103 130.811 124.846C130.57 124.58 130.246 124.448 129.838 124.448C129.431 124.448 129.094 124.58 128.828 124.846C128.57 125.111 128.441 125.451 128.441 125.866V129.5H127.131V120.167H128.441V124C128.865 123.502 129.456 123.253 130.213 123.253C130.903 123.253 131.452 123.477 131.859 123.925C132.275 124.365 132.483 124.949 132.483 125.68Z" fill="black"/>
<path d="M145.263 121.15H145.712V129.5H144.39V124.348L142.032 127.434H141.583L139.213 124.336V129.5H137.89V121.15H138.352L141.807 125.742L145.263 121.15Z" fill="black"/>
<path d="M152.499 125.804V129.5H151.277V128.816C150.819 129.363 150.166 129.637 149.318 129.637C148.678 129.637 148.162 129.475 147.771 129.152C147.38 128.828 147.185 128.401 147.185 127.87C147.185 127.339 147.389 126.916 147.796 126.6C148.204 126.285 148.753 126.128 149.443 126.128H151.177V125.729C151.177 125.306 151.06 124.983 150.827 124.759C150.603 124.535 150.283 124.423 149.867 124.423C149.243 124.423 148.678 124.725 148.17 125.331L147.409 124.56C148.008 123.688 148.869 123.253 149.992 123.253C150.757 123.253 151.364 123.477 151.813 123.925C152.27 124.373 152.499 124.999 152.499 125.804ZM151.177 127.185V127.073H149.605C148.881 127.073 148.52 127.322 148.52 127.82C148.52 128.069 148.615 128.268 148.807 128.417C149.006 128.558 149.268 128.629 149.593 128.629C150.042 128.629 150.416 128.492 150.715 128.218C151.023 127.944 151.177 127.6 151.177 127.185Z" fill="black"/>
<path d="M157.827 123.39V124.547H157.428C156.896 124.547 156.464 124.696 156.131 124.995C155.798 125.294 155.632 125.709 155.632 126.24V129.5H154.322V123.39H155.545V124.186C156.002 123.614 156.597 123.328 157.328 123.328C157.495 123.328 157.661 123.348 157.827 123.39Z" fill="black"/>
<path d="M159 129.5V120.167H160.31V129.5H159ZM161.894 126.078L164.576 129.5H163.004L160.347 126.065L162.742 123.39H164.364L161.894 126.078Z" fill="black"/>
<path d="M170.922 126.874H166.356C166.439 127.372 166.659 127.766 167.017 128.056C167.383 128.338 167.828 128.48 168.352 128.48C169.001 128.48 169.595 128.239 170.136 127.758L170.759 128.654C170.069 129.309 169.254 129.637 168.314 129.637C167.383 129.637 166.601 129.334 165.969 128.728C165.337 128.114 165.021 127.355 165.021 126.451C165.005 125.572 165.312 124.817 165.944 124.186C166.576 123.547 167.325 123.236 168.19 123.253C168.996 123.253 169.67 123.522 170.211 124.062C170.751 124.593 171.021 125.256 171.021 126.053C171.021 126.293 170.988 126.567 170.922 126.874ZM166.381 125.854H169.712C169.703 125.397 169.549 125.037 169.25 124.771C168.951 124.497 168.581 124.36 168.14 124.36C167.707 124.36 167.329 124.497 167.005 124.771C166.689 125.037 166.481 125.397 166.381 125.854Z" fill="black"/>
<path d="M176.165 128.392V129.5C175.732 129.591 175.371 129.637 175.08 129.637C174.364 129.637 173.807 129.458 173.408 129.102C173.017 128.745 172.822 128.214 172.822 127.509V124.522H171.824V123.39H172.822V121.784H174.144V123.39H175.965V124.522H174.144V127.397C174.144 127.778 174.24 128.052 174.431 128.218C174.63 128.376 174.938 128.455 175.354 128.455C175.495 128.455 175.766 128.434 176.165 128.392Z" fill="black"/>
</svg>
