<svg width="32" height="32" viewBox="0 0 32 32" fill="none" xmlns="http://www.w3.org/2000/svg">
<g clip-path="url(#clip0)">
<path d="M31.228 29.5231L21.3725 24.7852L21.2982 3.30782C21.2965 2.80644 21.8199 2.47607 22.2718 2.69333L31.6153 7.18637C31.8505 7.29947 32.0002 7.53748 32.0002 7.79849V29.0375C32.0001 29.4344 31.5856 29.695 31.228 29.5231Z" fill="#00FD8D"/>
<path d="M21.3722 24.7851L10.7055 19.6566L20.9744 2.7498C21.1558 2.45114 21.5343 2.33884 21.8492 2.49025L31.3233 7.04614C31.6855 7.22031 31.8181 7.66907 31.6087 8.01205L21.3722 24.7851Z" fill="#00E470"/>
<path d="M21.3722 24.7852L10.7055 19.6566L0.928544 3.73569C0.656145 3.29213 1.13012 2.76693 1.59921 2.99249L10.7055 7.37144L21.3722 24.7852Z" fill="#00C967"/>
<path d="M9.93352 29.5229L0.305249 24.893C0.118636 24.8032 0 24.6145 0 24.4075V3.05312C0 2.66883 0.401442 2.41635 0.747836 2.58296L10.7057 7.37141V29.0374C10.7057 29.4343 10.2911 29.6949 9.93352 29.5229Z" fill="#00AD6C"/>
</g>
<defs>
<clipPath id="clip0">
<rect width="32" height="32" fill="white"/>
</clipPath>
</defs>
</svg>
