<svg width="32" height="32" viewBox="0 0 32 32" fill="none" xmlns="http://www.w3.org/2000/svg">
<path d="M16 32C24.8366 32 32 24.8366 32 16C32 7.16344 24.8366 0 16 0C7.16344 0 0 7.16344 0 16C0 24.8366 7.16344 32 16 32Z" fill="#039BE5"/>
<path d="M7.32112 15.6533L22.7478 9.7053C23.4638 9.44664 24.0891 9.87997 23.8571 10.9626L23.8585 10.9613L21.2318 23.336C21.0371 24.2133 20.5158 24.4266 19.7865 24.0133L15.7865 21.0653L13.8571 22.924C13.6438 23.1373 13.4638 23.3173 13.0505 23.3173L13.3345 19.2466L20.7478 12.5493C21.0705 12.2653 20.6758 12.1053 20.2505 12.388L11.0891 18.156L7.13979 16.924C6.28245 16.652 6.26379 16.0666 7.32112 15.6533Z" fill="white"/>
</svg>
