<svg width="24" height="24" viewBox="0 0 24 24" fill="none" xmlns="http://www.w3.org/2000/svg">
<g clip-path="url(#clip0)">
<path d="M9.13201 21.9238C5.12639 21.9238 1.9605 21.224 0.445852 20.0041L0.416371 19.9803L0.389638 19.9536C0.0298359 19.5936 -0.0880841 19.1214 0.0664569 18.6581L0.0805561 18.6197C0.268056 18.1508 0.727468 17.8351 1.22533 17.8322C2.24999 17.8144 3.14647 17.6923 3.96001 17.4551C2.66234 16.8516 1.76091 15.8066 1.2246 14.2942C1.04424 13.8225 1.19988 13.2996 1.61553 12.9877C1.71807 12.9106 1.83397 12.8524 1.95665 12.8134C1.23559 11.981 0.702932 11.0338 0.404653 10.032L0.395314 10.0009L0.388906 9.96905C0.287648 9.4624 0.51415 8.94147 0.92925 8.71716C1.10338 8.61719 1.29253 8.56537 1.48241 8.56097C1.2777 8.12005 1.12883 7.66742 1.04058 7.21203C0.795583 5.95007 0.997731 4.68499 1.64116 3.45196L1.79003 3.15423C1.90923 2.91601 2.13701 2.74865 2.39959 2.70599C2.66216 2.66351 2.93132 2.7503 3.11937 2.93835L3.39055 3.2099C5.53289 5.45587 7.45183 6.52154 10.7695 7.25067C10.9177 5.97717 11.4683 4.79339 12.3565 3.86175C13.4136 2.75323 14.8251 2.13122 16.3312 2.10998H16.3411C17.4399 2.10998 18.8029 2.7373 19.6272 3.17968C20.3344 2.94824 21.1864 2.5899 22.0704 2.21106C22.4841 2.01696 22.994 2.10577 23.3192 2.43097C23.638 2.74975 23.7264 3.19928 23.5572 3.63617C23.493 3.81506 23.4201 3.99066 23.339 4.16241C23.46 4.21789 23.5708 4.29315 23.6644 4.38672C23.9473 4.66961 24.0652 5.11236 23.9647 5.51483L23.9538 5.5531C23.6151 6.64477 22.9643 7.53393 22.1038 8.09204C21.96 15.746 16.1962 21.9238 9.13201 21.9238ZM1.79552 19.2203C3.22283 20.0278 5.94286 20.5163 9.13201 20.5163C12.1981 20.5163 15.0915 19.1999 17.2791 16.8097C19.4846 14.3998 20.6991 11.1997 20.6991 7.7987V7.76043C20.6991 7.45245 20.8687 7.17138 21.1415 7.02673C21.6951 6.73358 22.1433 6.23425 22.4348 5.59576C22.1341 5.64319 21.8285 5.52252 21.6412 5.27093C21.4235 4.97851 21.4211 4.58355 21.6352 4.28857C21.7507 4.12927 21.8555 3.96356 21.9488 3.79217C21.1855 4.11279 20.4606 4.40027 19.8312 4.59124C19.6025 4.66046 19.3476 4.63336 19.1387 4.51672C18.0183 3.89251 16.9748 3.51935 16.3456 3.51751C14.024 3.55304 12.1364 5.54138 12.1364 7.95215C12.1364 8.20135 12.0258 8.435 11.8334 8.59338C11.6407 8.75159 11.3902 8.81494 11.1456 8.7666C7.32018 8.01294 5.05333 6.88281 2.69603 4.51397C2.35821 5.32348 2.26592 6.13885 2.42211 6.94397C2.58049 7.75952 3.00182 8.57672 3.64068 9.30713C3.88347 9.58435 3.9157 9.98096 3.72088 10.2939C3.52678 10.6057 3.15783 10.7515 2.80315 10.6564C2.52593 10.5821 2.27105 10.4845 2.02935 10.3591C2.52172 11.4286 3.36858 12.4177 4.43316 13.1472C4.74169 13.3587 4.87059 13.7529 4.74682 14.106C4.62285 14.4595 4.2766 14.6871 3.90233 14.6593C3.49456 14.6291 3.13329 14.5516 2.80077 14.4211C3.39769 15.6367 4.35149 16.3056 5.82091 16.5612C6.17083 16.6222 6.44329 16.8985 6.49895 17.2488C6.5548 17.5991 6.3814 17.9462 6.06774 18.1127C4.8153 18.7766 3.4464 19.1329 1.79552 19.2203Z" fill="black"/>
</g>
<defs>
<clipPath id="clip0">
<rect width="24" height="24" fill="white"/>
</clipPath>
</defs>
</svg>
