<svg width="96" height="96" viewBox="0 0 96 96" fill="none" xmlns="http://www.w3.org/2000/svg">
<style>
    path {
      fill: black;
      stroke: black;
    }
    rect {
      fill: black;
    }
    @media (prefers-color-scheme: dark) {
      path {
        fill: white;
        stroke: white;
      }
    }
</style>
<g clip-path="url(#clip0)">
<path d="M80.3954 48.4509L72.591 41.877L70.0068 44.97L81.184 54.3845C81.3915 54.5594 81.6305 54.6926 81.8872 54.7765C82.1439 54.8603 82.4133 54.8932 82.68 54.8733C82.9468 54.8533 83.2057 54.7809 83.4419 54.6602C83.6781 54.5395 83.887 54.3729 84.0567 54.1698L93.1934 43.2347L90.0317 40.5726L84.479 47.2194C84.3633 41.7365 83.0862 36.3109 80.7318 31.3005C78.3775 26.29 74.9995 21.8087 70.8207 18.1521C66.6419 14.4955 61.7573 11.7468 56.4892 10.0874C51.2211 8.428 45.6892 7.89555 40.2586 8.52521L40.8284 12.5799C45.7917 12.0037 50.8485 12.5129 55.6507 14.0723C60.4529 15.6317 64.8866 18.2044 68.6467 21.6133C72.4068 25.0221 75.404 29.1863 77.4322 33.8192C79.4603 38.4521 80.4713 43.4439 80.3954 48.4509V48.4509Z" fill="white"/>
<path d="M21.2612 22.5791C23.6298 20.2052 26.3258 18.1834 29.2625 16.5786L27.3922 26.4571L31.303 27.0956L33.933 13.2082C33.9819 12.9502 33.9797 12.6865 33.9266 12.4322C33.8734 12.1778 33.7704 11.9377 33.6233 11.7257C33.4762 11.5136 33.288 11.3337 33.0694 11.1963C32.8508 11.0588 32.6061 10.9665 32.3493 10.9246L18.5218 8.66667L17.7779 12.5949L25.9695 13.9323C21.2912 16.7609 17.2461 20.542 14.1062 25.0215C10.9663 29.5009 8.80425 34.5749 7.76545 39.9025C6.72665 45.23 6.83514 50.6877 8.08362 55.9086C9.33209 61.1296 11.6916 65.9929 15.0037 70.1716L18.1434 67.643C13.0229 61.2172 10.5089 53.0626 11.0844 44.7452C11.6598 36.4277 15.2841 28.5338 21.2612 22.5791Z" fill="white"/>
<path d="M77.1679 60.5092C75.3481 65.1465 72.527 69.2971 68.9001 72.6736C65.2732 76.0501 60.9272 78.5717 56.1632 80.0638C51.3991 81.5559 46.3309 81.9827 41.3095 81.3148C36.2882 80.6469 31.4338 78.9002 27.0826 76.1957L36.5571 72.8937L35.0899 69.0255L21.5979 73.7271L21.5735 73.7357C21.0691 73.914 20.663 74.2874 20.4441 74.7742C20.2251 75.2609 20.2112 75.8214 20.4052 76.3329L25.5927 90.01L29.4129 88.6786L26.2752 80.4039C31.134 83.1838 36.4925 84.9192 41.9954 85.4953C47.4982 86.0714 53.0196 85.4749 58.1933 83.7454C63.367 82.0158 68.0748 79.1928 72.0045 75.4635C75.9341 71.7342 78.9958 67.1839 80.9864 62.1143L77.1679 60.5092Z" fill="white"/>
<path d="M48.2001 48.7255C48.2001 50.9875 46.2246 52.8213 43.7877 52.8213C41.3509 52.8213 39.3754 50.9875 39.3754 48.7255C39.3754 46.4634 41.3509 44.6296 43.7877 44.6296C46.2246 44.6296 48.2001 46.4634 48.2001 48.7255Z" fill="white"/>
<path fill-rule="evenodd" clip-rule="evenodd" d="M62.0673 35.1843L45.5348 50.3006L42.5267 47.1433L59.0592 32.0269L62.0673 35.1843Z" fill="white"/>
</g>
<defs>
<clipPath id="clip0">
<rect width="96" height="96" fill="white"/>
</clipPath>
</defs>
</svg>